<mxfile host="Electron" modified="2023-12-15T13:52:02.208Z" agent="Mozilla/5.0 (Windows NT 10.0; Win64; x64) AppleWebKit/537.36 (KHTML, like Gecko) draw.io/22.0.2 Chrome/114.0.5735.289 Electron/25.8.4 Safari/537.36" etag="rj2bNm-nm8IKSSwcpKHG" version="22.0.2" type="device">
  <diagram id="C5RBs43oDa-KdzZeNtuy" name="Page-1">
    <mxGraphModel dx="1050" dy="629" grid="1" gridSize="10" guides="1" tooltips="1" connect="1" arrows="1" fold="1" page="1" pageScale="1" pageWidth="827" pageHeight="1169" math="0" shadow="0">
      <root>
        <mxCell id="WIyWlLk6GJQsqaUBKTNV-0" />
        <mxCell id="WIyWlLk6GJQsqaUBKTNV-1" parent="WIyWlLk6GJQsqaUBKTNV-0" />
        <mxCell id="wLV7upfCPvRyVK8gQ-zI-5" value="" style="edgeStyle=orthogonalEdgeStyle;rounded=0;orthogonalLoop=1;jettySize=auto;html=1;" edge="1" parent="WIyWlLk6GJQsqaUBKTNV-1" source="wLV7upfCPvRyVK8gQ-zI-0" target="wLV7upfCPvRyVK8gQ-zI-4">
          <mxGeometry relative="1" as="geometry" />
        </mxCell>
        <mxCell id="wLV7upfCPvRyVK8gQ-zI-0" value="UnshippedOrder" style="rounded=0;whiteSpace=wrap;html=1;" vertex="1" parent="WIyWlLk6GJQsqaUBKTNV-1">
          <mxGeometry x="370" y="160" width="120" height="60" as="geometry" />
        </mxCell>
        <mxCell id="wLV7upfCPvRyVK8gQ-zI-1" value="" style="endArrow=classic;html=1;rounded=0;" edge="1" parent="WIyWlLk6GJQsqaUBKTNV-1">
          <mxGeometry width="50" height="50" relative="1" as="geometry">
            <mxPoint x="430" y="30" as="sourcePoint" />
            <mxPoint x="429.5" y="160" as="targetPoint" />
          </mxGeometry>
        </mxCell>
        <mxCell id="wLV7upfCPvRyVK8gQ-zI-2" value="From BillingWorkflow" style="edgeLabel;html=1;align=center;verticalAlign=middle;resizable=0;points=[];" vertex="1" connectable="0" parent="wLV7upfCPvRyVK8gQ-zI-1">
          <mxGeometry x="-0.5969" relative="1" as="geometry">
            <mxPoint as="offset" />
          </mxGeometry>
        </mxCell>
        <mxCell id="wLV7upfCPvRyVK8gQ-zI-3" value="BillingSuccessEvent" style="edgeLabel;html=1;align=center;verticalAlign=middle;resizable=0;points=[];" vertex="1" connectable="0" parent="wLV7upfCPvRyVK8gQ-zI-1">
          <mxGeometry x="0.1261" relative="1" as="geometry">
            <mxPoint as="offset" />
          </mxGeometry>
        </mxCell>
        <mxCell id="wLV7upfCPvRyVK8gQ-zI-7" value="" style="edgeStyle=orthogonalEdgeStyle;rounded=0;orthogonalLoop=1;jettySize=auto;html=1;" edge="1" parent="WIyWlLk6GJQsqaUBKTNV-1" source="wLV7upfCPvRyVK8gQ-zI-4" target="wLV7upfCPvRyVK8gQ-zI-6">
          <mxGeometry relative="1" as="geometry" />
        </mxCell>
        <mxCell id="wLV7upfCPvRyVK8gQ-zI-4" value="SendOrderToShippingService" style="rhombus;whiteSpace=wrap;html=1;" vertex="1" parent="WIyWlLk6GJQsqaUBKTNV-1">
          <mxGeometry x="322.5" y="290" width="215" height="180" as="geometry" />
        </mxCell>
        <mxCell id="wLV7upfCPvRyVK8gQ-zI-8" style="edgeStyle=orthogonalEdgeStyle;rounded=0;orthogonalLoop=1;jettySize=auto;html=1;" edge="1" parent="WIyWlLk6GJQsqaUBKTNV-1" source="wLV7upfCPvRyVK8gQ-zI-6">
          <mxGeometry relative="1" as="geometry">
            <mxPoint x="430" y="760" as="targetPoint" />
          </mxGeometry>
        </mxCell>
        <mxCell id="wLV7upfCPvRyVK8gQ-zI-9" value="ShippingSuccessEvent" style="edgeLabel;html=1;align=center;verticalAlign=middle;resizable=0;points=[];" vertex="1" connectable="0" parent="wLV7upfCPvRyVK8gQ-zI-8">
          <mxGeometry x="0.0989" relative="1" as="geometry">
            <mxPoint as="offset" />
          </mxGeometry>
        </mxCell>
        <mxCell id="wLV7upfCPvRyVK8gQ-zI-6" value="ShippedOrder" style="rounded=0;whiteSpace=wrap;html=1;" vertex="1" parent="WIyWlLk6GJQsqaUBKTNV-1">
          <mxGeometry x="370" y="570" width="120" height="60" as="geometry" />
        </mxCell>
      </root>
    </mxGraphModel>
  </diagram>
</mxfile>
